<svg width="2160" height="2160" viewBox="0 0 2160 2160" fill="none" xmlns="http://www.w3.org/2000/svg">
<path d="M1888 640V602.27L1855.24 583.557L1113.74 160.057L1081.5 141.645L1049.26 160.057L307.763 583.557L275 602.27V640V1509V1546.53L307.506 1565.3L1049.01 1993.3L1081.5 2012.05L1113.99 1993.3L1855.49 1565.3L1888 1546.53V1509V640Z" stroke="url(#paint0_radial_3_2)" stroke-width="130"/>
<path d="M470 721.292L1010.5 415.358V958.176L867.5 883.697V661.5V660.665L866.764 661.059L603.764 802.059L603.5 802.201V802.5V884V884.287L603.748 884.432L1010.5 1122.29V1747.64L470 1438.21V1122.83L603.5 1194.3V1363V1363.29L603.755 1363.44L866.755 1510.94L867.5 1511.35V1510.5V1194V1193.71L867.254 1193.57L470 958.715V721.292ZM1499 1094V1094.3L1499.27 1094.44L1687 1194.3V1438.21L1149.5 1747.64V415.36L1687 721.291V958.717L1499.24 1071.57L1499 1071.72V1072V1094ZM1289.5 1034.5V1035.37L1290.25 1034.93L1550.25 884.433L1550.5 884.288V884V802.5V802.202L1550.24 802.06L1290.24 661.06L1289.5 660.66V661.5V1034.5ZM1355.75 1159.07L1355.51 1158.93L1355.27 1159.06L1289.77 1193.56L1289.5 1193.7V1194V1510.5V1511.36L1290.25 1510.93L1550.25 1363.43L1550.5 1363.29V1363V1272.5V1272.21L1550.25 1272.07L1355.75 1159.07Z" fill="url(#paint1_linear_3_2)" stroke="white"/>
<defs>
<radialGradient id="paint0_radial_3_2" cx="0" cy="0" r="1" gradientUnits="userSpaceOnUse" gradientTransform="translate(-5.50018 -96.0002) rotate(50.0624) scale(3249.46 2800.9)">
<stop stop-color="#FF1212"/>
<stop offset="1" stop-color="#331717"/>
</radialGradient>
<linearGradient id="paint1_linear_3_2" x1="1687" y1="151.5" x2="-37" y2="3051.5" gradientUnits="userSpaceOnUse">
<stop stop-color="#363537"/>
<stop offset="1" stop-color="#8000FF"/>
</linearGradient>
</defs>
</svg>
